<svg width="123" height="110" viewBox="0 0 123 110" fill="none" xmlns="http://www.w3.org/2000/svg">
<path fill-rule="evenodd" clip-rule="evenodd" d="M63.8926 11.698C77.8236 -2.22709 99.9856 -2.86575 113.135 10.2894L113.129 10.2953C126.278 23.4505 125.645 45.6124 111.714 59.5375L61.6065 109.651L49.668 97.7126C68.0229 87.4809 77.7898 67.3636 77.7898 49.2102C77.7898 48.3759 77.769 47.5333 77.7314 46.699C81.5327 43.95 84.8139 40.5459 87.4214 36.6462L87.4297 36.6337C83.9467 38.1771 80.205 39.2199 76.2715 39.6912C80.3302 37.2627 83.3666 33.4404 84.8143 28.9376C81.0011 31.2026 76.8277 32.7969 72.4756 33.6512C69.5489 30.5263 65.6725 28.4551 61.448 27.7591C57.2236 27.0631 52.8876 27.7813 49.1131 29.8021C45.3387 31.823 42.337 35.0334 40.5741 38.935C38.8112 42.8366 38.3858 47.2111 39.3638 51.3792C31.6372 50.9913 24.0786 48.983 17.1784 45.4848C10.8894 42.2964 5.27551 37.9353 0.635803 32.6426C0.865814 24.4038 4.00091 16.3847 10.0902 10.2953C23.2394 -2.86575 45.4014 -2.22709 59.3324 11.698L61.6125 13.9781L63.8926 11.698Z" fill="#F43F5E"/>
</svg>
